<?xml version="1.0" encoding="utf-8"?>
<!-- Generator: Adobe Illustrator 16.0.0, SVG Export Plug-In . SVG Version: 6.00 Build 0)  -->
<!DOCTYPE svg PUBLIC "-//W3C//DTD SVG 1.1//EN" "http://www.w3.org/Graphics/SVG/1.1/DTD/svg11.dtd">
<svg version="1.1" id="Your_Icon" xmlns="http://www.w3.org/2000/svg" xmlns:xlink="http://www.w3.org/1999/xlink" x="0px" y="0px"
	 width="62.5px" height="100px" viewBox="18.25 0 62.5 100" enable-background="new 18.25 0 62.5 100" xml:space="preserve">
<path d="M80.75,18.75C80.75,8.395,72.355,0,62,0C51.646,0,43.25,8.395,43.25,18.75c0,8.16,5.224,15.083,12.5,17.66V75
	c0,6.903-5.597,12.5-12.5,12.5c-6.904,0-12.5-5.597-12.5-12.5h12.5l-25-24.999V75c0,13.805,11.193,25,25,25
	c13.805,0,25-11.192,25-24.999l0,0v-38.59C75.528,33.833,80.75,26.911,80.75,18.75z M62,25c-3.45,0-6.25-2.799-6.25-6.25
	s2.8-6.25,6.25-6.25s6.25,2.799,6.25,6.25S65.45,25,62,25z"/>
</svg>
