<svg xmlns="http://www.w3.org/2000/svg" xmlns:xlink="http://www.w3.org/1999/xlink" version="1.1" id="Layer_1" x="0px" y="0px" width="100px" height="100px" viewBox="0 0 100 100" enable-background="new 0 0 100 100" xml:space="preserve">
<g>
	<defs>
		<rect id="SVGID_1_" x="12.5" y="4.5" width="74.415" height="90"/>
	</defs>
	<clipPath id="SVGID_2_">
		<use xlink:href="#SVGID_1_" overflow="visible"/>
	</clipPath>
	<path clip-path="url(#SVGID_2_)" fill="#000000" d="M76.379,86.288H61.1V94.5h15.279V86.288z M43.964,68.197H28.732v8.165h15.232   V68.197z M21.068,67.245h15.28V59.08h-15.28V67.245z M36.395,77.268H21.068v8.116h15.327V77.268z M52.531,77.268H37.3v8.116h15.231   V77.268z M52.531,59.081H37.299v8.165h15.232V59.081z M60.148,68.197H44.916v8.165h15.232V68.197z M68.763,77.268H53.438v8.116   h15.325V77.268z M68.763,59.081h-15.28v8.165h15.28V59.081z M76.379,50.012H61.052v8.212h15.327V50.012z M76.379,68.15H61.1v8.212   h15.279V68.15z M60.148,86.288H44.916V94.5h15.232V86.288z M43.964,86.288H28.732V94.5h15.232V86.288z M27.78,86.288H12.5V94.5   h15.28V86.288z M27.78,68.15H12.5v8.212h15.28V68.15z M27.828,50.012H12.501v8.212h15.327V50.012z M52.01,22.218h-0.842   c-0.156,0-0.309,0.058-0.419,0.158c-0.11,0.102-0.173,0.238-0.173,0.382v1.687c0,1.66-0.615,3.084-1.782,4.116   c-1.108,0.981-2.643,1.522-4.325,1.522c-1.679,0-3.216-0.541-4.326-1.522c-1.166-1.032-1.781-2.456-1.781-4.116v-1.687   c0-0.143-0.063-0.28-0.174-0.382c-0.111-0.101-0.26-0.158-0.417-0.158h-0.843v-1.884c1.13,0.538,2.539,0.94,4.234,0.94h6.613   c1.695,0,3.106-0.402,4.234-0.94L52.01,22.218z M55.415,17.612c0.185-0.265,0.102-0.617-0.189-0.787   c-0.116-0.069-0.25-0.097-0.379-0.089c-0.866,0.97-3.213,3.104-7.072,3.104c-0.222,0-0.401-0.166-0.401-0.368   s0.179-0.366,0.401-0.366c3.624,0,5.829-2.132,6.531-2.931c0.015-0.183,0.06-0.332-0.165-0.554c-0.336-0.328-0.949-0.28-0.949-0.28   c0,0.003-0.008-2.274-0.008-2.274c0-2.854-1.664-5.352-4.155-6.732v4.181c0,0.204-0.179,0.367-0.402,0.367   c-0.221,0-0.401-0.164-0.401-0.367V5.735c0-0.181-0.351-1.158-1.877-1.234h-3.758c-1.481-0.045-1.878,1.055-1.878,1.235   l0.002,4.779c0,0.203-0.18,0.367-0.403,0.367c-0.221,0-0.401-0.164-0.401-0.367V6.334c-2.492,1.381-4.156,3.879-4.156,6.732   c0,0-0.006,2.277-0.007,2.274c0,0-0.614-0.048-0.949,0.28c-0.225,0.222-0.181,0.371-0.166,0.554   c0.702,0.799,2.909,2.931,6.53,2.931c0.222,0,0.402,0.164,0.402,0.366s-0.18,0.368-0.402,0.368c-3.859,0-6.205-2.134-7.071-3.104   c-0.129-0.008-0.261,0.02-0.378,0.089c-0.29,0.17-0.376,0.522-0.189,0.787c0.056,0.081,0.797,1.115,2.235,2.062   c-0.008,0.039-0.015,0.078-0.015,0.119v2.965c0,0.144,0.062,0.28,0.175,0.381c0.11,0.102,0.261,0.158,0.418,0.158h0.842v1.146   c-0.001,1.933,0.76,3.671,2.14,4.894c1.331,1.177,3.16,1.826,5.149,1.826c1.99,0,3.819-0.649,5.15-1.826   c1.381-1.223,2.142-2.961,2.142-4.894v-1.146h0.843c0.154,0,0.305-0.057,0.418-0.158c0.11-0.101,0.172-0.237,0.172-0.381v-2.965   c0-0.041-0.004-0.08-0.015-0.119C54.617,18.728,55.359,17.693,55.415,17.612 M66.191,44.33l-4.473-5.258l-2.303-2.734   c-0.065-0.069-0.133-0.135-0.202-0.2c-1.991-2.327-4.931-3.907-8.472-3.907l-15.644-0.01c-6.087,0-10.873,4.966-10.873,11.157   v5.729h4.506v9.068h2.943V44.542h2.116l-0.003,13.634h21.426l0.005-13.634h1.382l3.831,4.565h11.436l-0.002-0.002h0.043   l5.824-6.938l-0.012-0.008c0.936-1.649,0.85-3.69-0.674-4.972c-1.568-1.316-3.714-1.006-5.139,0.327L66.191,44.33z M86.915,37.357   L74.633,27.051l-5.492,6.546l2.951,2.477c0.755-0.48,1.629-0.751,2.534-0.751c1.104,0,2.177,0.391,3.022,1.1   c1.608,1.35,2.112,3.52,1.313,5.416l2.461,2.064L86.915,37.357z"/>
</g>
</svg>